<?xml version="1.0" encoding="utf-8"?>
<!-- Generator: Adobe Illustrator 21.0.2, SVG Export Plug-In . SVG Version: 6.00 Build 0)  -->
<svg xmlns="http://www.w3.org/2000/svg" xmlns:xlink="http://www.w3.org/1999/xlink" version="1.1" x="0px" y="0px" viewBox="0 0 716 715" style="enable-background:new 0 0 716 715;" xml:space="preserve">
<style type="text/css">
	.st0{fill:#124DA1;}
	.st1{fill-rule:evenodd;clip-rule:evenodd;fill:#D6A75B;}
</style>
<g id="Слой_6">
</g>
<g id="Слой_5">
</g>
<g id="Слой_7">
	<g>
		<path class="st0" d="M201,275.5c-0.3-22.4,2.4-52.5,14.5-85.5c4.3-11.8,12.6-33.6,31-57.5c9.4-12.2,28.5-34,59-51.5    c37.3-21.4,71.2-24.6,97-27c20.2-1.9,60.1-5.2,108,10c20.8,6.6,51.8,16.4,81.5,44.5c30.3,28.6,42.1,60.2,47.5,75    c4.5,12.3,18.7,55.1,9,109.5c-6.6,37.3-21.6,63.5-27,72.5c-9.1,15.1-26.1,33.7-60,71c-19.4,21.3-25.7,27.2-36,42    c-12.1,17.3-20.2,33.2-28,48.5c-14.3,28.2-11.6,28.2-22.5,48.5c-15.3,28.6-25,46-45.5,57c-3.8,2-16.7,8.8-34,9.5    c-15.6,0.7-30.5-3.7-41.8-7c-19.3-5.7-27.8-7-27.8-7v49c0,0,2.2,1.2,2.4,1.3c50.4,25,102.5,11.3,102.5,11.3    c16.2-4.3,39.8-10.4,57.6-30.7c6.8-7.7,13.1-19.5,25.5-43c6.4-12,8.6-17,17.5-35c14.5-29.2,21.7-43.8,26-51    c8.4-14,21.2-28.7,46.5-57.5c31.2-35.5,31.2-32.8,43.5-49c10.9-14.4,25.8-34.2,38-63.5c8.6-20.6,12.3-37.2,15-49.5    c4-18.3,8.9-40.7,7.5-70.5c-0.3-7.2-2-34.1-13.5-67c-10-28.6-23.3-49.7-32.5-62.5c-3.8-5.3-17.6-24.1-40.5-44    c-18.3-15.9-34.1-25.4-38.5-28c-31.6-18.6-59.7-24.9-83-30C453.1-1.7,414.6-0.4,395.5,1c-26.6,1.9-59.6,4.3-99,21.5    c-52.4,22.8-82.2,57-88.5,64.5c-3.2,3.8-17.9,21.5-31.5,48c-11,21.4-16.3,39-21.5,56.5c-4.6,15.5-9.9,36.5-13.7,61.8L201,275.5z"/>
		<path class="st0" d="M676.5,530c-21.8,0-39.5,17.7-39.5,39.5s17.7,39.5,39.5,39.5s39.5-17.7,39.5-39.5S698.3,530,676.5,530z     M676.7,589.3c-11.2,0-20.3-9.1-20.3-20.3c0-11.2,9.1-20.3,20.3-20.3c11.2,0,20.3,9.1,20.3,20.3    C697,580.2,687.9,589.3,676.7,589.3z"/>
		<path class="st1" d="M254.5,617.9L240,462.2L0.2,309.8l17.6-27.6l213.7,66.9c152.7,36.6,283.7-197.3,376.3-315.1l30,19.1    c-72,130.9-223.5,351.8-128,474.8l146.9,158l-18.6,29.2L405.1,569.4L254.5,617.9z"/>
		<path class="st0" d="M559.7,296.3c0.7-8.7,1.4-21,1.3-35.7c-0.1-26.9-0.1-40.3-4.3-53.7c-9.1-28.6-30.3-45.3-37.3-50.7    C499,140.8,479.1,136.7,461,133c-6.9-1.4-26.9-5.1-53-3c-14.5,1.2-29.7,2.4-47.3,10c-7.8,3.4-34.1,15.2-52.3,44.3    c-21,33.6-17.1,67.6-15.7,77.3c-20.9,7.9-41.8,15.8-62.7,23.7c-2.5-19.9-5.7-67.5,20.7-116.3c16.5-30.5,37.3-48.1,43.3-53    c42.1-34.2,88.7-37.8,112.7-39.7c6.8-0.5,36.3-2.5,73.3,5.7c22.2,4.9,46.7,10.3,72.3,29c5.2,3.8,25,18.7,41.7,45.7    c15.6,25.3,20.3,48.1,23,62c6.3,32.3,3.4,59.4,2,71.7c-0.4,3.2-0.7,5.8-1,7.7L559.7,296.3z"/>
	</g>
</g>
</svg>
